# xmcd
#
# Track frame offsets:
# 150
# 19977
# 41450
# 61257
# 73219
# 92534
# 105069
# 117947
# 133580
# 148927
# 160929
# 178835
#
# Disc length: 2562 seconds
#
#
# Revision: 0
# Processed by: cddbd v1.5.1PL2 Copyright (c) Steve Scherf et al.
# Submitted via: FreeRIP 2.943 
#
DISCID=a30a000c
DTITLE=Celeste Carballo - CELESTEACUSTICADOS
DYEAR=2004
DGENRE=Rock Nacional
TTITLE0=01_Es la vida que me alcanza
TTITLE1=02_Todo empieza
TTITLE2=03_Agua
TTITLE3=04_Aprendizaje
TTITLE4=05_Como loca
TTITLE5=06_Una Estrella
TTITLE6=07_Veneno
TTITLE7=08_Mercedez Benz
TTITLE8=09_Que suerte que viniste
TTITLE9=10_Cuando seamos del amor
TTITLE10=11_Buenos Aires no tiene la culpa
TTITLE11=12_Yo vengo a ofrecer mi corazón
EXTD=
EXTT0=
EXTT1=
EXTT2=
EXTT3=
EXTT4=
EXTT5=
EXTT6=
EXTT7=
EXTT8=
EXTT9=
EXTT10=
EXTT11=
PLAYORDER=
